<svg xmlns="http://www.w3.org/2000/svg" width="504" height="144" class="svgbob"><style>.svgbob line, .svgbob path, .svgbob circle, .svgbob rect, .svgbob polygon {
    stroke: black;
    stroke-width: 2;
    stroke-opacity: 1;
    fill-opacity: 1;
    stroke-linecap: round;
    stroke-linejoin: miter;
}
.svgbob text {
    white-space: pre;
    fill: black;
    font-family: Iosevka Fixed, monospace;
    font-size: 14px;
}
.svgbob rect.backdrop {
    stroke: none;
    fill: white;
}
.svgbob .broken {
    stroke-dasharray: 8;
}
.svgbob .filled {
    fill: black;
}
.svgbob .bg_filled {
    fill: white;
    stroke-width: 1;
}
.svgbob .nofill {
    fill: white;
}
.svgbob .end_marked_arrow {
    marker-end: url(#arrow);
}
.svgbob .start_marked_arrow {
    marker-start: url(#arrow);
}
.svgbob .end_marked_diamond {
    marker-end: url(#diamond);
}
.svgbob .start_marked_diamond {
    marker-start: url(#diamond);
}
.svgbob .end_marked_circle {
    marker-end: url(#circle);
}
.svgbob .start_marked_circle {
    marker-start: url(#circle);
}
.svgbob .end_marked_open_circle {
    marker-end: url(#open_circle);
}
.svgbob .start_marked_open_circle {
    marker-start: url(#open_circle);
}
.svgbob .end_marked_big_open_circle {
    marker-end: url(#big_open_circle);
}
.svgbob .start_marked_big_open_circle {
    marker-start: url(#big_open_circle);
}<!--separator--></style><defs><marker id="arrow" viewBox="-2 -2 8 8" refX="4" refY="2" markerWidth="7" markerHeight="7" orient="auto-start-reverse"><polygon points="0,0 0,4 4,2 0,0"></polygon></marker><marker id="diamond" viewBox="-2 -2 8 8" refX="4" refY="2" markerWidth="7" markerHeight="7" orient="auto-start-reverse"><polygon points="0,2 2,0 4,2 2,4 0,2"></polygon></marker><marker id="circle" viewBox="0 0 8 8" refX="4" refY="4" markerWidth="7" markerHeight="7" orient="auto-start-reverse"><circle cx="4" cy="4" r="2" class="filled"></circle></marker><marker id="open_circle" viewBox="0 0 8 8" refX="4" refY="4" markerWidth="7" markerHeight="7" orient="auto-start-reverse"><circle cx="4" cy="4" r="2" class="bg_filled"></circle></marker><marker id="big_open_circle" viewBox="0 0 8 8" refX="4" refY="4" markerWidth="7" markerHeight="7" orient="auto-start-reverse"><circle cx="4" cy="4" r="3" class="bg_filled"></circle></marker></defs><rect class="backdrop" x="0" y="0" width="504" height="144"></rect><polygon points="488,20 496,24 488,28" class="filled"></polygon><line x1="432" y1="56" x2="452" y2="56" class="solid end_marked_circle"></line><line x1="448" y1="56" x2="452" y2="56" class="solid"></line><text x="258" y="76" >`</text><line x1="320" y1="80" x2="328" y2="80" class="solid"></line><line x1="388" y1="88" x2="412" y2="88" class="solid end_marked_circle"></line><line x1="408" y1="88" x2="412" y2="88" class="solid"></line><text x="234" y="108" >⟋</text><polygon points="448,116 456,120 448,124" class="filled"></polygon><g><path d="M 472,24 A 8,8 0,0,0 466,28" class="nofill"></path><line x1="466" y1="28" x2="454" y2="52" class="solid"></line><line x1="472" y1="24" x2="488" y2="24" class="solid"></line></g><g><line x1="80" y1="48" x2="96" y2="48" class="solid"></line><line x1="80" y1="48" x2="48" y2="112" class="solid"></line><line x1="72" y1="64" x2="160" y2="64" class="solid"></line><line x1="96" y1="48" x2="80" y2="80" class="solid"></line><line x1="160" y1="64" x2="168" y2="80" class="solid"></line><line x1="24" y1="88" x2="60" y2="88" class="solid"></line><path d="M 80,80 A 16,16 0,0,0 80,96" class="nofill"></path><line x1="80" y1="96" x2="96" y2="96" class="solid"></line><line x1="32" y1="112" x2="48" y2="112" class="solid"></line><line x1="32" y1="112" x2="24" y2="128" class="solid"></line><line x1="176" y1="64" x2="208" y2="64" class="solid"></line><line x1="176" y1="64" x2="152" y2="112" class="solid"></line><line x1="208" y1="64" x2="216" y2="80" class="solid"></line><line x1="224" y1="64" x2="256" y2="64" class="solid"></line><line x1="224" y1="64" x2="200" y2="112" class="solid"></line><line x1="208" y1="96" x2="216" y2="112" class="solid"></line><line x1="216" y1="112" x2="232" y2="112" class="solid"></line><line x1="96" y1="80" x2="120" y2="80" class="solid"></line><line x1="128" y1="64" x2="120" y2="80" class="solid"></line><line x1="184" y1="80" x2="200" y2="80" class="solid"></line><line x1="184" y1="80" x2="168" y2="112" class="solid"></line><line x1="200" y1="80" x2="184" y2="112" class="solid"></line><line x1="184" y1="112" x2="200" y2="112" class="solid"></line><path d="M 112,80 A 16,16 0,0,1 112,96" class="nofill"></path><line x1="72" y1="96" x2="56" y2="128" class="solid"></line><line x1="64" y1="112" x2="104" y2="112" class="solid"></line><line x1="112" y1="96" x2="104" y2="112" class="solid"></line><line x1="112" y1="96" x2="120" y2="112" class="solid"></line><line x1="120" y1="112" x2="168" y2="112" class="solid"></line><line x1="24" y1="128" x2="56" y2="128" class="solid"></line></g><g><line x1="264" y1="64" x2="336" y2="64" class="solid"></line><line x1="272" y1="64" x2="240" y2="128" class="solid"></line><line x1="336" y1="64" x2="344" y2="80" class="solid"></line><line x1="352" y1="64" x2="384" y2="64" class="solid"></line><line x1="352" y1="64" x2="320" y2="128" class="solid"></line><line x1="384" y1="64" x2="392" y2="80" class="solid"></line><line x1="320" y1="96" x2="336" y2="96" class="solid"></line><line x1="392" y1="80" x2="376" y2="112" class="solid"></line><line x1="352" y1="112" x2="376" y2="112" class="solid"></line><line x1="280" y1="80" x2="304" y2="80" class="solid"></line><line x1="312" y1="64" x2="296" y2="96" class="solid"></line><line x1="280" y1="80" x2="264" y2="112" class="solid"></line><line x1="248" y1="112" x2="264" y2="112" class="solid"></line><line x1="296" y1="96" x2="304" y2="112" class="solid"></line><line x1="304" y1="112" x2="328" y2="112" class="solid"></line><line x1="360" y1="80" x2="376" y2="80" class="solid"></line><line x1="360" y1="80" x2="336" y2="128" class="solid"></line><line x1="352" y1="96" x2="368" y2="96" class="solid"></line><line x1="376" y1="80" x2="368" y2="96" class="solid"></line><line x1="320" y1="128" x2="336" y2="128" class="solid"></line><line x1="208" y1="112" x2="200" y2="128" class="solid"></line><line x1="200" y1="128" x2="240" y2="128" class="solid"></line></g><g><path d="M 432,56 A 8,8 0,0,0 426,60" class="nofill"></path><line x1="426" y1="60" x2="414" y2="84" class="solid"></line></g><g><line x1="136" y1="80" x2="152" y2="80" class="solid"></line><line x1="136" y1="80" x2="128" y2="96" class="solid"></line><line x1="128" y1="96" x2="144" y2="96" class="solid"></line><line x1="152" y1="80" x2="144" y2="96" class="solid"></line></g><g><line x1="232" y1="80" x2="248" y2="80" class="solid"></line><line x1="232" y1="80" x2="224" y2="96" class="solid"></line><line x1="224" y1="96" x2="240" y2="96" class="solid"></line><line x1="248" y1="80" x2="240" y2="96" class="solid"></line></g><g><line x1="414" y1="92" x2="426" y2="116" class="solid"></line><path d="M 426,116 A 8,8 0,0,0 432,120" class="nofill"></path><line x1="432" y1="120" x2="448" y2="120" class="solid"></line></g></svg>